<svg xmlns="http://www.w3.org/2000/svg" xmlns:xlink="http://www.w3.org/1999/xlink" width="508" height="411" viewBox="0 0 508 411"><defs><path id="egjia" d="M686.56 907.6c0-8.13-6.6-14.72-14.75-14.72H196.35c-8.14 0-14.75 6.6-14.75 14.73v290.81h504.96z"/><path id="egjib" d="M434.08 900.67a3.41 3.41 0 1 1 0 6.83 3.41 3.41 0 0 1 0-6.83z"/><path id="egjic" d="M430 908v-8h8v8zm2.81-3.92a1.27 1.27 0 1 0 2.54 0 1.27 1.27 0 0 0-2.54 0z"/><path id="egjid" d="M348.31 1296.96v1.9c0 1.41 63.02 1.07 85.17 1.06 22.16.01 85.17.35 85.17-1.05v-1.91-.48c-21.7.95-66.1.67-84.65.67-18.55 0-63.6 0-85.69-.67v.48z"/><path id="egjie" d="M347.17 1296.81v.76c0 1.41 64.16 1.07 86.31 1.06 22.16 0 86.32.35 86.32-1.06v-.76-.48c-21.7.96-67.25.67-85.8.67-18.55 0-64.74 0-86.83-.67v.48z"/><path id="egjif" d="M519.67 1296.38c0-1.05-18.07-2.77-21.8-4.4-3.73-1.62-7.55-45.28-7.55-54.83H376.4c0 9.55-3.83 53.2-7.56 54.83-3.73 1.63-21.8 3.35-21.8 4.4 22.09.67 68.28.67 86.83.67 18.55 0 64.1.28 85.8-.67z"/><path id="egjih" d="M196.35 1245.5H671.8c8.15 0 14.75-6.6 14.75-14.73v-32.35H181.6v32.35c0 8.13 6.6 14.73 14.75 14.73z"/><path id="egjii" d="M439.33 1221.01s-.04-3.55 0 0zm0 0c.03 3.57 3.13 4.75 3.17 4.77-.03.08-.5 1.69-1.64 3.35-.98 1.43-2 2.86-3.61 2.89-1.59.03-2.1-.94-3.9-.94-1.81 0-2.38.9-3.87.97-1.56.06-2.74-1.55-3.73-2.98-2.03-2.92-3.58-8.26-1.5-11.86a5.79 5.79 0 0 1 4.89-2.95c1.52-.03 2.96 1.02 3.9 1.02.93 0 2.68-1.26 4.52-1.08.77.03 2.93.31 4.32 2.34-.11.06-2.58 1.5-2.55 4.47zm-2.98-8.74a4.4 4.4 0 0 1-3.5 1.66 4.92 4.92 0 0 1 1.25-3.64 5.3 5.3 0 0 1 3.48-1.78 5.17 5.17 0 0 1-1.23 3.76s.83-1 0 0z"/><path id="egjim" d="M434.08 902.82a1.27 1.27 0 1 1 0 2.53 1.27 1.27 0 0 1 0-2.53z"/><linearGradient id="egjig" x1="403.05" x2="463.67" y1="1237.15" y2="1297.09" gradientUnits="userSpaceOnUse"><stop offset="0" stop-opacity=".2"/><stop offset=".5" stop-opacity="0"/><stop offset="1" stop-opacity="0"/></linearGradient><clipPath id="egjij"><use fill="#fff" xlink:href="#egjia"/></clipPath><mask id="egjil" width="2" height="2" x="-1" y="-1"><path fill="#fff" d="M430 900h8v8h-8z"/><use xlink:href="#egjib"/></mask><filter id="egjik" width="28" height="29" x="420" y="890" filterUnits="userSpaceOnUse"><feOffset dy="1" in="SourceGraphic" result="FeOffset1079Out"/><feGaussianBlur in="FeOffset1079Out" result="FeGaussianBlur1080Out" stdDeviation="0 0"/></filter><clipPath id="egjin"><use fill="#fff" xlink:href="#egjic"/></clipPath></defs><g><g transform="translate(-180 -891)"><g><g><g><use fill="#181818" xlink:href="#egjid"/></g><g><use fill="#e0e0e0" xlink:href="#egjie"/></g><g><use fill="#d2d3d5" xlink:href="#egjif"/><use fill="url(#egjig)" xlink:href="#egjif"/></g><g><use fill="#d2d3d5" xlink:href="#egjih"/></g><g><use fill="#181818" xlink:href="#egjii"/></g><g><use fill="#181818" xlink:href="#egjia"/><use fill="#fff" fill-opacity="0" stroke="#0c0c0c" stroke-linecap="round" stroke-linejoin="round" stroke-miterlimit="50" stroke-width="2" clip-path="url(&quot;#egjij&quot;)" xlink:href="#egjia"/></g><g><g filter="url(#egjik)"><use fill="none" stroke-opacity=".1" stroke-width="0" mask="url(&quot;#egjil&quot;)" xlink:href="#egjib"/><use fill="#fff" fill-opacity=".1" xlink:href="#egjib"/></g><use fill="#0a0a0a" xlink:href="#egjib"/></g><g><use fill="#30a7c4" xlink:href="#egjim"/><use fill="#fff" fill-opacity="0" stroke="#000" stroke-linecap="round" stroke-linejoin="round" stroke-miterlimit="50" stroke-width="4" clip-path="url(&quot;#egjin&quot;)" xlink:href="#egjim"/></g><g/></g></g></g></g></svg>